<?xml version="1.0" standalone="no"?>
<!DOCTYPE svg PUBLIC "-//W3C//DTD SVG 1.1//EN" "http://www.w3.org/Graphics/SVG/1.1/DTD/svg11.dtd">
<svg width="10" height="16" viewBox="-5 -8 10 16" xmlns="http://www.w3.org/2000/svg" version="1.1">
<title>OpenSCAD Model</title>
<path d="
M -4,5.5 L 4,5.5 L 4,7.5 L 5,7.5 L 5,-7.5 L -5,-7.5
 L -5,7.5 L -4,7.5 z
M -0.899994,-1.45999 L -0.899994,-1.995 L -2.78,-1.995 L -2.78,-2.25999 L -3.39999,-2.25999 L -3.39999,-2.30925
 L -3.49998,-2.35378 L -3.61838,-2.43979 L -3.71631,-2.54854 L -3.78947,-2.67528 L -3.8347,-2.81445 L -3.84999,-2.95999
 L -3.8347,-3.10553 L -3.78947,-3.24471 L -3.71631,-3.37144 L -3.61838,-3.48019 L -3.49998,-3.56621 L -3.39999,-3.61073
 L -3.39999,-3.65999 L -2.78,-3.65999 L -2.78,-3.92499 L -0.899994,-3.92499 L -0.899994,-4.53499 L -2.78,-4.53499
 L -2.78,-4.79999 L -3.39999,-4.79999 L -3.39999,-4.84926 L -3.49998,-4.89377 L -3.61838,-4.9798 L -3.71631,-5.08855
 L -3.78947,-5.21527 L -3.8347,-5.35446 L -3.84999,-5.5 L -3.8347,-5.64552 L -3.78947,-5.78471 L -3.71631,-5.91144
 L -3.61838,-6.02019 L -3.49998,-6.10622 L -3.39999,-6.15073 L -3.39999,-6.2 L -2.78,-6.2 L -2.78,-6.465
 L -0.899994,-6.465 L -0.899994,-7 L 1.59999,-7 L 1.59999,-6.465 L 3.48,-6.465 L 3.48,-6.2
 L 4.09999,-6.2 L 4.09999,-6.15073 L 4.2,-6.10622 L 4.31839,-6.02019 L 4.41631,-5.91144 L 4.48947,-5.78471
 L 4.5347,-5.64552 L 4.54999,-5.5 L 4.5347,-5.35446 L 4.48947,-5.21527 L 4.41631,-5.08855 L 4.31839,-4.9798
 L 4.2,-4.89377 L 4.09999,-4.84926 L 4.09999,-4.79999 L 3.48,-4.79999 L 3.48,-4.53499 L 1.59999,-4.53499
 L 1.59999,-3.92499 L 3.48,-3.92499 L 3.48,-3.65999 L 4.09999,-3.65999 L 4.09999,-3.61073 L 4.2,-3.56621
 L 4.31839,-3.48019 L 4.41631,-3.37144 L 4.48947,-3.24471 L 4.5347,-3.10553 L 4.54999,-2.95999 L 4.5347,-2.81445
 L 4.48947,-2.67528 L 4.41631,-2.54854 L 4.31839,-2.43979 L 4.2,-2.35378 L 4.09999,-2.30925 L 4.09999,-2.25999
 L 3.48,-2.25999 L 3.48,-1.995 L 1.59999,-1.995 L 1.59999,-1.45999 z
M -2.325,1.226 L -2.325,0.955994 L -3.09999,0.955994 L -3.09999,0.934418 L -3.28639,0.873856 L -3.45839,0.774551
 L -3.60597,0.641663 L -3.72272,0.480988 L -3.8035,0.299561 L -3.84479,0.105301 L -3.84479,-0.0932922 L -3.8035,-0.287552
 L -3.72272,-0.468994 L -3.60597,-0.629669 L -3.45839,-0.762558 L -3.28639,-0.861862 L -3.09999,-0.922424 L -3.09999,-0.943985
 L -2.325,-0.943985 L -2.325,-1.21399 L -0.474991,-1.21399 L -0.474991,-0.943985 L 0.299988,-0.943985 L 0.299988,-0.922424
 L 0.486389,-0.861862 L 0.658386,-0.762558 L 0.805984,-0.629669 L 0.922714,-0.468994 L 1.00349,-0.287552 L 1.04478,-0.0932922
 L 1.04478,0.105301 L 1.00349,0.299561 L 0.922714,0.480988 L 0.805984,0.641663 L 0.658386,0.774551 L 0.486389,0.873856
 L 0.299988,0.934418 L 0.299988,0.955994 L -0.474991,0.955994 L -0.474991,1.226 z
M -2.325,4.01999 L -2.325,3.74998 L -3.09999,3.74998 L -3.09999,3.72842 L -3.28639,3.66786 L -3.45839,3.56856
 L -3.60597,3.43567 L -3.72272,3.27499 L -3.8035,3.09355 L -3.84479,2.89929 L -3.84479,2.70068 L -3.8035,2.50642
 L -3.72272,2.325 L -3.60597,2.16432 L -3.45839,2.03143 L -3.28639,1.93213 L -3.09999,1.87157 L -3.09999,1.84999
 L -2.325,1.84999 L -2.325,1.57999 L -0.474991,1.57999 L -0.474991,1.84999 L 0.299988,1.84999 L 0.299988,1.87157
 L 0.486389,1.93213 L 0.658386,2.03143 L 0.805984,2.16432 L 0.922714,2.325 L 1.00349,2.50642 L 1.04478,2.70068
 L 1.04478,2.89929 L 1.00349,3.09355 L 0.922714,3.27499 L 0.805984,3.43567 L 0.658386,3.56856 L 0.486389,3.66786
 L 0.299988,3.72842 L 0.299988,3.74998 L -0.474991,3.74998 L -0.474991,4.01999 z
" stroke="black" fill="lightgray" stroke-width="0.5"/></svg>
